REM DIRINDEX 1\2\4,1\2\5,1\3\6,1\3\7,1\3\8
REM DIRNAME folder01,folder02,folder03,folder04,folder05,folder06,folder07,folder08
TITLE ""
FILE "LEVEL6-011-midashigo.mp3" MP3
  TRACK 01 AUDIO
    TITLE "0:"
    INDEX 01 00:00:00
  TRACK 02 AUDIO
    TITLE "6:cjc092_4563"
    INDEX 01 00:00:01
  TRACK 03 AUDIO
    TITLE "0:"
    INDEX 01 00:03:17
  TRACK 04 AUDIO
    TITLE "7:cjc092_4564"
    INDEX 01 00:04:01
  TRACK 05 AUDIO
    TITLE "8:cjc092_4565"
    INDEX 01 00:05:40
  TRACK 06 AUDIO
    TITLE "0:"
    INDEX 01 00:07:21
  TRACK 07 AUDIO
    TITLE "7:cjc092_4566"
    INDEX 01 00:07:52
  TRACK 08 AUDIO
    TITLE "8:cjc092_4567"
    INDEX 01 00:08:72
  TRACK 09 AUDIO
    TITLE "0:"
    INDEX 01 00:12:11
  TRACK 10 AUDIO
    TITLE "7:cjc092_4568"
    INDEX 01 00:12:44
  TRACK 11 AUDIO
    TITLE "8:cjc092_4569"
    INDEX 01 00:13:57
  TRACK 12 AUDIO
    TITLE "0:"
    INDEX 01 00:18:46
  TRACK 13 AUDIO
    TITLE "7:cjc092_4570"
    INDEX 01 00:19:07
  TRACK 14 AUDIO
    TITLE "8:cjc092_4571"
    INDEX 01 00:20:24
  TRACK 15 AUDIO
    TITLE "0:"
    INDEX 01 00:22:74
  TRACK 16 AUDIO
    TITLE "7:cjc092_4572"
    INDEX 01 00:23:30
  TRACK 17 AUDIO
    TITLE "8:cjc092_4573"
    INDEX 01 00:24:53
  TRACK 18 AUDIO
    TITLE "0:"
    INDEX 01 00:26:52
  TRACK 19 AUDIO
    TITLE "7:cjc092_4574"
    INDEX 01 00:27:14
  TRACK 20 AUDIO
    TITLE "8:cjc092_4575"
    INDEX 01 00:28:35
  TRACK 21 AUDIO
    TITLE "0:"
    INDEX 01 00:29:46
  TRACK 22 AUDIO
    TITLE "7:cjc092_4576"
    INDEX 01 00:30:06
  TRACK 23 AUDIO
    TITLE "8:cjc092_4577"
    INDEX 01 00:31:27
  TRACK 24 AUDIO
    TITLE "0:"
    INDEX 01 00:33:44
  TRACK 25 AUDIO
    TITLE "7:cjc092_4578"
    INDEX 01 00:33:71
  TRACK 26 AUDIO
    TITLE "8:cjc092_4579"
    INDEX 01 00:35:17
  TRACK 27 AUDIO
    TITLE "0:"
    INDEX 01 00:36:17
  TRACK 28 AUDIO
    TITLE "7:cjc092_4580"
    INDEX 01 00:36:54
  TRACK 29 AUDIO
    TITLE "8:cjc092_4581"
    INDEX 01 00:38:41
  TRACK 30 AUDIO
    TITLE "0:"
    INDEX 01 00:42:10
  TRACK 31 AUDIO
    TITLE "7:cjc092_4582"
    INDEX 01 00:42:45
  TRACK 32 AUDIO
    TITLE "8:cjc092_4583"
    INDEX 01 00:44:16
  TRACK 33 AUDIO
    TITLE "0:"
    INDEX 01 00:46:68
  TRACK 34 AUDIO
    TITLE "7:cjc092_4584"
    INDEX 01 00:47:25
  TRACK 35 AUDIO
    TITLE "8:cjc092_4585"
    INDEX 01 00:48:42
  TRACK 36 AUDIO
    TITLE "0:"
    INDEX 01 00:52:08
  TRACK 37 AUDIO
    TITLE "7:cjc092_4586"
    INDEX 01 00:52:41
  TRACK 38 AUDIO
    TITLE "8:cjc092_4587"
    INDEX 01 00:53:58
  TRACK 39 AUDIO
    TITLE "0:"
    INDEX 01 00:56:67
  TRACK 40 AUDIO
    TITLE "7:cjc092_4588"
    INDEX 01 00:57:27
  TRACK 41 AUDIO
    TITLE "8:cjc092_4589"
    INDEX 01 00:58:66
  TRACK 42 AUDIO
    TITLE "0:"
    INDEX 01 01:00:66
  TRACK 43 AUDIO
    TITLE "7:cjc092_4590"
    INDEX 01 01:01:25
  TRACK 44 AUDIO
    TITLE "8:cjc092_4591"
    INDEX 01 01:02:34
  TRACK 45 AUDIO
    TITLE "0:"
    INDEX 01 01:04:29
  TRACK 46 AUDIO
    TITLE "7:cjc092_4592"
    INDEX 01 01:04:66
  TRACK 47 AUDIO
    TITLE "8:cjc092_4593"
    INDEX 01 01:06:14
  TRACK 48 AUDIO
    TITLE "0:"
    INDEX 01 01:09:44
  TRACK 49 AUDIO
    TITLE "7:cjc092_4594"
    INDEX 01 01:10:04
  TRACK 50 AUDIO
    TITLE "8:cjc092_4595"
    INDEX 01 01:11:31
  TRACK 51 AUDIO
    TITLE "0:"
    INDEX 01 01:15:50
  TRACK 52 AUDIO
    TITLE "7:cjc092_4596"
    INDEX 01 01:16:09
  TRACK 53 AUDIO
    TITLE "8:cjc092_4597"
    INDEX 01 01:17:28
  TRACK 54 AUDIO
    TITLE "0:"
    INDEX 01 01:20:12
  TRACK 55 AUDIO
    TITLE "7:cjc092_4598"
    INDEX 01 01:20:44
  TRACK 56 AUDIO
    TITLE "8:cjc092_4599"
    INDEX 01 01:21:57
  TRACK 57 AUDIO
    TITLE "0:"
    INDEX 01 01:23:01
  TRACK 58 AUDIO
    TITLE "7:cjc092_4600"
    INDEX 01 01:23:36
  TRACK 59 AUDIO
    TITLE "8:cjc092_4601"
    INDEX 01 01:24:47
  TRACK 60 AUDIO
    TITLE "0:"
    INDEX 01 01:25:62
